<svg width="71" height="71" viewBox="0 0 71 71" fill="none" xmlns="http://www.w3.org/2000/svg">
<rect width="71" height="71" rx="35.5" fill="#4ECCA3"/>
<path d="M33.81 27.485L33.813 27.643L25.983 39.018C24.715 38.96 23.443 39.183 22.235 39.68C21.7091 39.8937 21.2071 40.1619 20.737 40.48L3.542 33.393C3.542 33.393 3.144 39.939 4.802 44.817L16.958 49.833C17.558 52.561 19.438 54.953 22.2 56.103C24.3729 57.0059 26.8154 57.0094 28.9909 56.1128C31.1665 55.2162 32.8972 53.4928 33.803 51.321C34.2862 50.1642 34.5193 48.9183 34.487 47.665L45.68 39.66L45.955 39.665C52.66 39.665 58.11 34.199 58.11 27.485C58.11 20.771 52.67 15.325 45.955 15.311C39.253 15.311 33.8 20.771 33.8 27.485H33.81ZM31.93 50.535C30.476 54.035 26.464 55.682 22.977 54.229C21.4296 53.5787 20.1754 52.3821 19.453 50.867L23.41 52.507C24.0213 52.7615 24.6767 52.893 25.3388 52.894C26.0009 52.8951 26.6568 52.7657 27.2689 52.5132C27.8809 52.2607 28.4373 51.89 28.9061 51.4224C29.3749 50.9548 29.7469 50.3995 30.001 49.788C30.5155 48.5526 30.5185 47.1634 30.0095 45.9257C29.5004 44.688 28.5208 43.703 27.286 43.187L23.186 41.492C24.764 40.892 26.558 40.872 28.236 41.569C29.936 42.272 31.236 43.596 31.932 45.289C32.628 46.982 32.624 48.849 31.922 50.535M45.966 35.6C43.8175 35.5942 41.7588 34.7371 40.241 33.2165C38.7231 31.6958 37.8698 29.6356 37.868 27.487C37.8704 25.3388 38.7239 23.2791 40.2417 21.7589C41.7595 20.2387 43.8178 19.3819 45.966 19.376C48.1145 19.3813 50.1734 20.2379 51.6916 21.7582C53.2098 23.2785 54.0636 25.3385 54.066 27.487C54.0642 29.6359 53.2106 31.6965 51.6923 33.2172C50.174 34.7379 48.1149 35.5947 45.966 35.6ZM39.898 27.474C39.8967 25.8597 40.5363 24.3109 41.6764 23.1681C42.8165 22.0252 44.3637 21.3817 45.978 21.379C49.333 21.379 52.062 24.109 52.062 27.474C52.0628 29.0887 51.4223 30.6376 50.2815 31.7801C49.1406 32.9227 47.5926 33.5654 45.978 33.567C44.3639 33.5646 42.8167 32.9216 41.6765 31.7791C40.5362 30.6366 39.8972 29.0882 39.898 27.474Z" fill="#303841"/>
</svg>
