<svg width="71" height="71" viewBox="0 0 71 71" fill="none" xmlns="http://www.w3.org/2000/svg">
<rect width="71" height="71" rx="35.5" fill="#3A4750"/>
<path d="M52.827 18.875L46.1155 53.1425C46.1155 53.1425 45.827 54.7084 43.8848 54.7084C42.8528 54.7084 42.3207 54.2175 42.3207 54.2175L27.7831 42.1542L20.6702 38.569L11.5417 36.1413C11.5417 36.1413 9.91663 35.6719 9.91663 34.3282C9.91663 33.2084 11.5883 32.6745 11.5883 32.6745L49.7794 17.5026C49.7794 17.5026 50.9458 17.0816 51.7968 17.0834C52.32 17.0834 52.9166 17.3073 52.9166 17.9792C52.9166 18.4271 52.827 18.875 52.827 18.875Z" fill="#4ECCA3"/>
<path d="M33.2083 46.6548L27.0701 52.6999C27.0701 52.6999 26.8031 52.9059 26.4466 52.9148C26.3229 52.9184 26.1904 52.8987 26.0542 52.8378L27.7814 42.1505L33.2083 46.6548Z" fill="#389A7A"/>
<path d="M45.5654 24.6012C45.2626 24.2071 44.7036 24.1354 44.3095 24.4346L20.6666 38.5834C20.6666 38.5834 24.4399 49.1399 25.015 50.9674C25.5919 52.7967 26.0542 52.8397 26.0542 52.8397L27.7813 42.1524L45.397 25.8554C45.7912 25.5562 45.8646 24.9954 45.5654 24.6012Z" fill="#3A4750"/>
</svg>
