<svg width="71" height="71" viewBox="0 0 71 71" fill="none" xmlns="http://www.w3.org/2000/svg">
<rect width="71" height="71" rx="35.5" fill="#4ECCA3"/>
<path fill-rule="evenodd" clip-rule="evenodd" d="M17.8118 18.8821C15 21.7641 15 26.4027 15 35.68V37.32C15 46.5973 15 51.2358 17.8118 54.118C20.6235 57 25.149 57 34.2 57H35.8C44.851 57 49.3764 57 52.1882 54.118C55 51.2358 55 46.5973 55 37.32V35.68C55 26.4027 55 21.7641 52.1882 18.8821C49.3764 16 44.851 16 35.8 16H34.2C25.149 16 20.6235 16 17.8118 18.8821ZM21.75 28.471C21.9667 39.131 27.1666 45.5372 36.2832 45.5372H36.8001V39.4384C40.1501 39.7801 42.6832 42.2913 43.6998 45.5372H48.4333C47.1333 40.6855 43.7165 38.0034 41.5832 36.9784C43.7165 35.7143 46.7165 32.6393 47.4332 28.471H43.1331C42.1998 31.8535 39.4334 34.9284 36.8001 35.2188V28.471H32.4999V40.2926C29.8333 39.6093 26.4667 36.2952 26.3167 28.471H21.75Z" fill="#303841"/>
</svg>
